<svg width="200" height="43" viewBox="0 0 200 43" fill="none" xmlns="http://www.w3.org/2000/svg">
<path d="M131.271 28.8407C131.271 28.1559 131.166 27.5413 130.955 26.997C130.762 26.4351 130.393 25.9259 129.849 25.4693C129.305 24.9953 128.541 24.5299 127.557 24.0734C126.574 23.6169 125.301 23.1428 123.738 22.6511C122 22.0892 120.349 21.4571 118.787 20.7548C117.242 20.0524 115.872 19.2359 114.678 18.3053C113.501 17.3571 112.571 16.2596 111.886 15.013C111.219 13.7663 110.885 12.3176 110.885 10.6671C110.885 9.06923 111.236 7.62061 111.939 6.32124C112.641 5.00432 113.624 3.88054 114.889 2.94991C116.153 2.00173 117.645 1.27303 119.366 0.763817C121.105 0.254606 123.01 0 125.082 0C127.909 0 130.376 0.509211 132.483 1.52763C134.59 2.54606 136.223 3.942 137.382 5.71546C138.558 7.48892 139.146 9.51698 139.146 11.7997H131.298C131.298 10.6759 131.06 9.69257 130.586 8.84974C130.13 7.98935 129.427 7.31333 128.479 6.82168C127.549 6.33002 126.372 6.0842 124.95 6.0842C123.58 6.0842 122.439 6.29491 121.526 6.71632C120.613 7.12018 119.928 7.67329 119.472 8.37565C119.015 9.06045 118.787 9.83305 118.787 10.6934C118.787 11.3431 118.945 11.9313 119.261 12.4581C119.594 12.9849 120.086 13.4765 120.736 13.9331C121.385 14.3896 122.184 14.8198 123.133 15.2237C124.081 15.6275 125.178 16.0226 126.425 16.4089C128.514 17.041 130.349 17.7522 131.93 18.5423C133.528 19.3325 134.862 20.2192 135.933 21.2025C137.004 22.1858 137.812 23.3008 138.356 24.5475C138.901 25.7942 139.173 27.2077 139.173 28.788C139.173 30.4561 138.848 31.9486 138.198 33.2655C137.549 34.5825 136.609 35.6975 135.38 36.6105C134.151 37.5236 132.685 38.2172 130.981 38.6913C129.278 39.1654 127.373 39.4024 125.266 39.4024C123.37 39.4024 121.5 39.1566 119.656 38.6649C117.812 38.1557 116.135 37.3919 114.625 36.3735C113.133 35.3551 111.939 34.0557 111.043 32.4754C110.148 30.8951 109.7 29.025 109.7 26.8653H117.628C117.628 28.0593 117.812 29.0689 118.181 29.8942C118.55 30.7195 119.068 31.3867 119.735 31.8959C120.42 32.4052 121.227 32.7739 122.158 33.0022C123.106 33.2304 124.142 33.3446 125.266 33.3446C126.636 33.3446 127.759 33.1514 128.637 32.7651C129.533 32.3788 130.191 31.8433 130.613 31.1585C131.052 30.4737 131.271 29.7011 131.271 28.8407Z" fill="#E11D48"/>
<path d="M67.6637 0.526772H74.3536L84.2042 28.6826L94.0548 0.526772H100.745L86.8908 38.8757H81.5177L67.6637 0.526772ZM64.0553 0.526772H70.7189L71.9305 27.9715V38.8757H64.0553V0.526772ZM97.6896 0.526772H104.38V38.8757H96.478V27.9715L97.6896 0.526772Z" fill="#E11D48"/>
<path d="M29.4991 0.526772H43.801C46.7333 0.526772 49.253 0.965747 51.3601 1.8437C53.4848 2.72165 55.1177 4.02101 56.2591 5.7418C57.4004 7.46258 57.9711 9.57844 57.9711 12.0894C57.9711 14.1438 57.6199 15.9085 56.9175 17.3834C56.2327 18.8408 55.2582 20.0612 53.994 21.0445C52.7473 22.0102 51.2811 22.7828 49.5954 23.3623L47.0933 24.6792H34.6615L34.6088 18.516H43.8536C45.2408 18.516 46.3909 18.2702 47.304 17.7785C48.217 17.2868 48.9018 16.602 49.3584 15.7241C49.8325 14.8461 50.0695 13.8277 50.0695 12.6688C50.0695 11.4397 49.8413 10.3774 49.3847 9.48187C48.9282 8.58636 48.2346 7.90156 47.304 7.42746C46.3734 6.95337 45.2057 6.71632 43.801 6.71632H37.4007V38.8757H29.4991V0.526772ZM50.9387 38.8757L42.1943 21.782L50.5436 21.7293L59.3934 38.5069V38.8757H50.9387Z" fill="#E11D48"/>
<path d="M193.535 22.9672L176.652 16.9357V9.85061L199.593 19.4905V24.5738L193.535 22.9672ZM176.652 28.0242L193.562 21.861L199.593 20.4124V25.4693L176.652 35.1092V28.0242Z" fill="#0F172A"/>
<path d="M173.228 0.526772L160.112 42.168H153.791L166.907 0.526772H173.228Z" fill="#0F172A"/>
<path d="M6.00518 21.9136L22.7565 27.9715V35.1092L0 25.4693V20.4124L6.00518 21.9136ZM22.7565 16.962L5.97884 23.1252L0 24.5475V19.4905L22.7565 9.85061V16.962Z" fill="#0F172A"/>
</svg>
